<svg width="14" height="14" viewBox="0 0 14 14" fill="none" xmlns="http://www.w3.org/2000/svg">
<path d="M6.45985 1.53591C6.64651 1.04357 7.35293 1.04357 7.54018 1.53591L8.74768 4.88074C8.78981 4.9897 8.86398 5.08332 8.96042 5.14925C9.05686 5.21517 9.17103 5.2503 9.28785 5.24999H12.2553C12.8036 5.24999 13.0428 5.93249 12.6117 6.26674L10.5 8.16666C10.4054 8.23937 10.3363 8.34018 10.3026 8.45462C10.2688 8.56906 10.2722 8.69125 10.3122 8.80366L11.0833 12.0721C11.2712 12.5971 10.6633 13.048 10.2037 12.7248L7.33543 10.9048C7.23721 10.8358 7.12007 10.7987 7.00001 10.7987C6.87996 10.7987 6.76282 10.8358 6.6646 10.9048L3.79635 12.7248C3.33726 13.048 2.72885 12.5965 2.91668 12.0721L3.68785 8.80366C3.72785 8.69125 3.73122 8.56906 3.69748 8.45462C3.66373 8.34018 3.59461 8.23937 3.50001 8.16666L1.38835 6.26674C0.956681 5.93249 1.19701 5.24999 1.74418 5.24999H4.7116C4.82843 5.25038 4.94264 5.21528 5.03909 5.14935C5.13555 5.08341 5.20971 4.98975 5.25176 4.88074L6.45926 1.53591H6.45985Z" fill="#FFD057" stroke="#FFD057" stroke-linecap="round" stroke-linejoin="round"/>
</svg>
